<svg width="100%"
 viewBox="0.00 0.00 1505.00 283.00" xmlns="http://www.w3.org/2000/svg" xmlns:xlink="http://www.w3.org/1999/xlink">
<g id="graph0" class="graph" transform="scale(1 1) rotate(0) translate(32.4 250.26)">
<title>scope_ladder</title>
<polygon fill="#f7f8fa" stroke="none" points="-32.4,32.4 -32.4,-250.26 1472.91,-250.26 1472.91,32.4 -32.4,32.4"/>
<!-- L0 -->
<g id="node1" class="node">
<title>L0</title>
<path fill="#ffffff" stroke="#d5dae0" stroke-width="1.6" d="M149.57,-217.86C149.57,-217.86 34.88,-217.86 34.88,-217.86 28.88,-217.86 22.88,-211.86 22.88,-205.86 22.88,-205.86 22.88,-185.12 22.88,-185.12 22.88,-179.12 28.88,-173.12 34.88,-173.12 34.88,-173.12 149.57,-173.12 149.57,-173.12 155.57,-173.12 161.57,-179.12 161.57,-185.12 161.57,-185.12 161.57,-205.86 161.57,-205.86 161.57,-211.86 155.57,-217.86 149.57,-217.86"/>
<text xml:space="preserve" text-anchor="middle" x="92.22" y="-192.31" font-family="PingFang SC" font-size="14.00" fill="#1f2933">已定义 · 未挂载</text>
</g>
<!-- L1 -->
<g id="node3" class="node">
<title>L1</title>
<path fill="#e8f0fe" stroke="#4285f4" stroke-width="1.6" d="M620.88,-185.98C620.88,-185.98 436.44,-185.98 436.44,-185.98 430.44,-185.98 424.44,-179.98 424.44,-173.98 424.44,-173.98 424.44,-133 424.44,-133 424.44,-127 430.44,-121 436.44,-121 436.44,-121 620.88,-121 620.88,-121 626.88,-121 632.88,-127 632.88,-133 632.88,-133 632.88,-173.98 632.88,-173.98 632.88,-179.98 626.88,-185.98 620.88,-185.98"/>
<text xml:space="preserve" text-anchor="middle" x="528.66" y="-160.44" font-family="PingFang SC" font-size="14.00" fill="#1f2933">单会话</text>
<text xml:space="preserve" text-anchor="middle" x="528.66" y="-140.19" font-family="PingFang SC" font-size="14.00" fill="#1f2933">只在造它的那次对话里生效</text>
</g>
<!-- L0&#45;&gt;L1 -->
<g id="edge1" class="edge">
<title>L0&#45;&gt;L1</title>
<path fill="none" stroke="#34a853" stroke-width="1.8" d="M162.06,-188.83C229.49,-182.32 333.47,-172.26 413.33,-164.54"/>
<polygon fill="#34a853" stroke="#34a853" stroke-width="1.8" points="413.53,-167.34 421.22,-163.78 412.99,-161.76 413.53,-167.34"/>
<text xml:space="preserve" text-anchor="middle" x="304.44" y="-201.76" font-family="PingFang SC" font-size="11.00" fill="#34a853">通用筛</text>
<text xml:space="preserve" text-anchor="middle" x="304.44" y="-186.01" font-family="PingFang SC" font-size="11.00" fill="#34a853">语法 / schema / 能否启动</text>
</g>
<!-- ARC -->
<g id="node2" class="node">
<title>ARC</title>
<path fill="#ffffff" stroke="#d5dae0" stroke-width="1.6" d="M172.44,-140.98C172.44,-140.98 12,-140.98 12,-140.98 6,-140.98 0,-134.98 0,-128.98 0,-128.98 0,-94 0,-94 0,-88 6,-82 12,-82 12,-82 172.44,-82 172.44,-82 178.44,-82 184.44,-88 184.44,-94 184.44,-94 184.44,-128.98 184.44,-128.98 184.44,-134.98 178.44,-140.98 172.44,-140.98"/>
<text xml:space="preserve" text-anchor="middle" x="92.22" y="-117.34" font-family="PingFang SC" font-size="12.00" fill="#1f2933">档案</text>
<text xml:space="preserve" text-anchor="middle" x="92.22" y="-100.09" font-family="PingFang SC" font-size="12.00" fill="#1f2933">源码 · 轨迹摘要 · 退役原因</text>
</g>
<!-- ARC&#45;&gt;L1 -->
<g id="edge6" class="edge">
<title>ARC&#45;&gt;L1</title>
<path fill="none" stroke="#f9ab00" stroke-width="1.8" d="M195.5,-121.38C264.27,-128.03 354.62,-136.76 423.73,-143.44"/>
<polygon fill="#f9ab00" stroke="#f9ab00" stroke-width="1.8" points="196.03,-118.62 187.8,-120.63 195.49,-124.19 196.03,-118.62"/>
<text xml:space="preserve" text-anchor="middle" x="304.44" y="-142.79" font-family="PingFang SC" font-size="11.00" fill="#f9ab00">退役</text>
</g>
<!-- L2 -->
<g id="node4" class="node">
<title>L2</title>
<path fill="#e6f4ea" stroke="#34a853" stroke-width="1.6" d="M1017.57,-186.98C1017.57,-186.98 861.63,-186.98 861.63,-186.98 855.63,-186.98 849.63,-180.98 849.63,-174.98 849.63,-174.98 849.63,-134 849.63,-134 849.63,-128 855.63,-122 861.63,-122 861.63,-122 1017.57,-122 1017.57,-122 1023.57,-122 1029.57,-128 1029.57,-134 1029.57,-134 1029.57,-174.98 1029.57,-174.98 1029.57,-180.98 1023.57,-186.98 1017.57,-186.98"/>
<text xml:space="preserve" text-anchor="middle" x="939.6" y="-161.44" font-family="PingFang SC" font-size="14.00" fill="#1f2933">preset 层</text>
<text xml:space="preserve" text-anchor="middle" x="939.6" y="-141.19" font-family="PingFang SC" font-size="14.00" fill="#1f2933">同一类任务的会话共用</text>
</g>
<!-- L1&#45;&gt;L2 -->
<g id="edge2" class="edge">
<title>L1&#45;&gt;L2</title>
<path fill="none" stroke="#34a853" stroke-width="1.8" d="M633.65,-153.74C696.5,-153.9 776.22,-154.09 838.39,-154.24"/>
<polygon fill="#34a853" stroke="#34a853" stroke-width="1.8" points="838.26,-157.04 846.27,-154.26 838.28,-151.44 838.26,-157.04"/>
<text xml:space="preserve" text-anchor="middle" x="737.5" y="-175.16" font-family="PingFang SC" font-size="11.00" fill="#34a853">场景筛</text>
<text xml:space="preserve" text-anchor="middle" x="737.5" y="-159.41" font-family="PingFang SC" font-size="11.00" fill="#34a853">历史轨迹重放不退化</text>
</g>
<!-- L1&#45;&gt;L2 -->
<g id="edge4" class="edge">
<title>L1&#45;&gt;L2</title>
<path fill="none" stroke="#f9ab00" stroke-width="1.8" d="M643.85,-121.33C658.24,-118.31 672.83,-115.73 686.88,-113.99 731.54,-108.47 743.52,-108.09 788.13,-113.99 808.11,-116.63 829.21,-121.17 849.07,-126.27"/>
<polygon fill="#f9ab00" stroke="#f9ab00" stroke-width="1.8" points="643.3,-118.58 636.08,-123.02 644.5,-124.06 643.3,-118.58"/>
<text xml:space="preserve" text-anchor="middle" x="737.5" y="-135.04" font-family="PingFang SC" font-size="11.00" fill="#f9ab00">降一级</text>
<text xml:space="preserve" text-anchor="middle" x="737.5" y="-119.29" font-family="PingFang SC" font-size="11.00" fill="#f9ab00">观察期</text>
</g>
<!-- PUR -->
<g id="node6" class="node">
<title>PUR</title>
<path fill="#ffffff" stroke="#ea4335" stroke-width="1.6" stroke-dasharray="5,2" d="M1025.07,-58.98C1025.07,-58.98 854.13,-58.98 854.13,-58.98 848.13,-58.98 842.13,-52.98 842.13,-46.98 842.13,-46.98 842.13,-12 842.13,-12 842.13,-6 848.13,0 854.13,0 854.13,0 1025.07,0 1025.07,0 1031.07,0 1037.07,-6 1037.07,-12 1037.07,-12 1037.07,-46.98 1037.07,-46.98 1037.07,-52.98 1031.07,-58.98 1025.07,-58.98"/>
<text xml:space="preserve" text-anchor="middle" x="939.6" y="-35.34" font-family="PingFang SC" font-size="12.00" fill="#1f2933">清除</text>
<text xml:space="preserve" text-anchor="middle" x="939.6" y="-18.09" font-family="PingFang SC" font-size="12.00" fill="#1f2933">危险行为 · 任意层级立即掉出</text>
</g>
<!-- L1&#45;&gt;PUR -->
<g id="edge7" class="edge">
<title>L1&#45;&gt;PUR</title>
<path fill="none" stroke="#ea4335" stroke-width="1.8" stroke-dasharray="5,2" d="M628.01,-120.28C647.47,-113.9 667.79,-107.38 686.88,-101.49 734.72,-86.74 788,-71.36 833.17,-58.61"/>
<polygon fill="#ea4335" stroke="#ea4335" stroke-width="1.8" points="833.68,-60.65 838.88,-57 832.54,-56.61 833.68,-60.65"/>
</g>
<!-- L3 -->
<g id="node5" class="node">
<title>L3</title>
<path fill="#fdecea" stroke="#ea4335" stroke-width="2.6" d="M1428.51,-185.98C1428.51,-185.98 1271.07,-185.98 1271.07,-185.98 1265.07,-185.98 1259.07,-179.98 1259.07,-173.98 1259.07,-173.98 1259.07,-133 1259.07,-133 1259.07,-127 1265.07,-121 1271.07,-121 1271.07,-121 1428.51,-121 1428.51,-121 1434.51,-121 1440.51,-127 1440.51,-133 1440.51,-133 1440.51,-173.98 1440.51,-173.98 1440.51,-179.98 1434.51,-185.98 1428.51,-185.98"/>
<text xml:space="preserve" text-anchor="middle" x="1349.79" y="-160.44" font-family="PingFang SC" font-size="14.00" fill="#1f2933">全局层</text>
<text xml:space="preserve" text-anchor="middle" x="1349.79" y="-140.19" font-family="PingFang SC" font-size="14.00" fill="#1f2933">所有会话 · 重启后仍在</text>
</g>
<!-- L2&#45;&gt;L3 -->
<g id="edge3" class="edge">
<title>L2&#45;&gt;L3</title>
<path fill="none" stroke="#ea4335" stroke-width="2.4" d="M1030.18,-154.27C1094.07,-154.11 1180.1,-153.9 1246.66,-153.74"/>
<polygon fill="#ea4335" stroke="#ea4335" stroke-width="2.4" points="1246.38,-156.54 1254.38,-153.72 1246.37,-150.94 1246.38,-156.54"/>
<text xml:space="preserve" text-anchor="middle" x="1148.07" y="-175.16" font-family="PingFang SC" font-size="11.00" fill="#ea4335">转正审查</text>
<text xml:space="preserve" text-anchor="middle" x="1148.07" y="-159.41" font-family="PingFang SC" font-size="11.00" fill="#ea4335">消融验证有贡献 · 落盘</text>
</g>
<!-- L2&#45;&gt;L3 -->
<g id="edge5" class="edge">
<title>L2&#45;&gt;L3</title>
<path fill="none" stroke="#f9ab00" stroke-width="1.8" d="M1040.47,-123.69C1057.21,-119.66 1074.52,-116.18 1091.07,-113.99 1141.3,-107.35 1154.86,-107.22 1205.07,-113.99 1222.38,-116.33 1240.55,-120.18 1257.93,-124.58"/>
<polygon fill="#f9ab00" stroke="#f9ab00" stroke-width="1.8" points="1039.86,-120.96 1032.77,-125.61 1041.21,-126.39 1039.86,-120.96"/>
<text xml:space="preserve" text-anchor="middle" x="1148.07" y="-135.04" font-family="PingFang SC" font-size="11.00" fill="#f9ab00">降一级</text>
<text xml:space="preserve" text-anchor="middle" x="1148.07" y="-119.29" font-family="PingFang SC" font-size="11.00" fill="#f9ab00">观察期</text>
</g>
<!-- L2&#45;&gt;PUR -->
<g id="edge8" class="edge">
<title>L2&#45;&gt;PUR</title>
<path fill="none" stroke="#ea4335" stroke-width="1.8" stroke-dasharray="5,2" d="M939.6,-121.56C939.6,-103.86 939.6,-86.15 939.6,-68.45"/>
<polygon fill="#ea4335" stroke="#ea4335" stroke-width="1.8" points="941.7,-68.49 939.6,-62.49 937.5,-68.49 941.7,-68.49"/>
</g>
<!-- L3&#45;&gt;PUR -->
<g id="edge9" class="edge">
<title>L3&#45;&gt;PUR</title>
<path fill="none" stroke="#ea4335" stroke-width="1.8" stroke-dasharray="5,2" d="M1261.44,-119.84C1242.94,-113.11 1223.44,-106.33 1205.07,-100.49 1153.14,-83.98 1094.69,-68.02 1045.98,-55.43"/>
<polygon fill="#ea4335" stroke="#ea4335" stroke-width="1.8" points="1046.6,-53.42 1040.26,-53.96 1045.55,-57.49 1046.6,-53.42"/>
</g>
</g>
</svg>
